<svg xmlns="http://www.w3.org/2000/svg" width="54.597" height="48.591" viewBox="0 0 54.597 48.591">
  <g id="React-icon" transform="translate(-175.778 -78.413)">
    <path id="Path_2" data-name="Path 2" d="M230.374,102.436c0-3.617-4.521-7.156-11.465-9.281,1.6-7.078.954-12.392-2.184-14.2a5.771,5.771,0,0,0-2.73-.546V80.6a4.314,4.314,0,0,1,1.638.546c1.513.868,2.15,3.938,1.638,8.189-.122,1.046-.3,2.152-.546,3.276a54.921,54.921,0,0,0-7.1-1.092,54.1,54.1,0,0,0-4.914-5.46c3.628-3.372,6.967-5.46,9.281-5.46V78.413h0c-3.06,0-6.869,2.222-10.919,6.006-4.051-3.761-7.859-6.006-10.919-6.006V80.6c2.3,0,5.654,2.11,9.281,5.46a52.8,52.8,0,0,0-4.914,5.46,52.782,52.782,0,0,0-7.1,1.092c-.256-1.113-.412-2.241-.546-3.276-.523-4.251.136-7.31,1.638-8.189a4.071,4.071,0,0,1,1.638-.546V78.413h0a5.771,5.771,0,0,0-2.73.546c-3.127,1.8-3.8,7.14-2.184,14.2-6.922,2.137-11.465,5.676-11.465,9.281s4.521,7.156,11.465,9.281c-1.6,7.078-.954,12.392,2.184,14.2a6.2,6.2,0,0,0,2.73,1.092c3.06,0,6.869-2.222,10.919-6.006C207.127,124.76,210.935,127,214,127a6.257,6.257,0,0,0,2.73-1.092c3.127-1.8,3.8-7.14,2.184-14.2C225.809,109.592,230.374,106.041,230.374,102.436Zm-14.741-7.1a44.719,44.719,0,0,1-1.092,4.368c-.456-.89-1.115-1.84-1.638-2.73s-1.093-1.884-1.638-2.73C212.846,94.48,214.175,94.982,215.633,95.338ZM210.72,106.8c-.868,1.5-1.806,3.043-2.73,4.368-1.658.145-3.222,0-4.914,0s-3.267.134-4.914,0c-.924-1.324-1.862-2.877-2.73-4.368-.846-1.458-1.483-2.876-2.184-4.368.69-1.491,1.349-2.91,2.184-4.368.868-1.5,1.806-3.043,2.73-4.368,1.658-.145,3.222,0,4.914,0s3.267-.134,4.914,0c.924,1.324,1.862,2.877,2.73,4.368.846,1.458,1.483,2.877,2.184,4.368C212.2,103.927,211.554,105.346,210.72,106.8Zm3.822-1.092a41.73,41.73,0,0,1,1.092,4.368c-1.458.356-2.776.312-4.368.546.545-.857,1.126-1.828,1.638-2.73S214.085,106.6,214.541,105.712Zm-11.465,11.465A41.329,41.329,0,0,1,199.8,113.9c1,.045,2.241,0,3.276,0s2.263.056,3.276,0A39.543,39.543,0,0,1,203.076,117.177Zm-8.189-6.552c-1.58-.234-3.456-.19-4.914-.546.412-1.436,1.059-2.888,1.638-4.368.456.89,1.115,1.84,1.638,2.73S194.341,109.779,194.887,110.625Zm8.189-22.931a41.325,41.325,0,0,1,3.276,3.276c-1-.045-2.241,0-3.276,0s-2.263-.056-3.276,0A39.542,39.542,0,0,1,203.076,87.695Zm-8.189,6.552c-.545.857-1.126,1.828-1.638,2.73s-1.182,1.84-1.638,2.73c-.6-1.491-1.215-2.921-1.638-4.368C191.431,94.993,193.3,94.48,194.887,94.246ZM184.513,107.9c-3.939-1.68-6.552-3.712-6.552-5.46s2.612-3.79,6.552-5.46c.957-.412,2.2-.747,3.276-1.092a53.454,53.454,0,0,0,2.73,6.552,59.875,59.875,0,0,0-2.73,7.1C186.687,109.188,185.481,108.307,184.513,107.9Zm6.006,16.379c-1.513-.868-2.15-4.484-1.638-8.735.122-1.046.3-2.152.546-3.276a54.918,54.918,0,0,0,7.1,1.092,62.838,62.838,0,0,0,4.914,6.006c-3.628,3.372-6.967,4.914-9.281,4.914C191.656,124.263,190.853,124.464,190.519,124.274Zm26.752-8.735c.523,4.251-.136,7.31-1.638,8.189a4.071,4.071,0,0,1-1.638.546c-2.3,0-5.654-1.564-9.281-4.914a61.194,61.194,0,0,0,4.914-6.006,52.781,52.781,0,0,0,7.1-1.092A31.408,31.408,0,0,1,217.271,115.539Zm3.822-7.644a26.818,26.818,0,0,1-2.73,1.092,53.457,53.457,0,0,0-2.73-6.552,53.461,53.461,0,0,0,2.73-6.552c1.1.345,2.3.68,3.276,1.092,3.939,1.68,6.006,3.712,6.006,5.46S225.032,106.226,221.093,107.9Z" fill="#61dafb"/>
    <path id="Path_3" data-name="Path 3" d="M320.3,78.731Z" transform="translate(-128.691 -0.318)" fill="#61dafb"/>
    <ellipse id="Ellipse_2" data-name="Ellipse 2" cx="4.914" cy="5.187" rx="4.914" ry="5.187" transform="translate(198.162 97.522)" fill="#61dafb"/>
    <path id="Path_4" data-name="Path 4" d="M520.3,78.493Z" transform="translate(-306.301 -0.079)" fill="#61dafb"/>
  </g>
</svg>
