<svg id="blogging" xmlns="http://www.w3.org/2000/svg" width="153.747" height="159.048" viewBox="0 0 153.747 159.048">
  <path id="Path_37" data-name="Path 37" d="M13.254,201.937H129.889a13.27,13.27,0,0,0,13.254-13.254V93.254A13.27,13.27,0,0,0,129.889,80h-2.651v5.3h2.651a7.953,7.953,0,0,1,7.952,7.952v95.429a7.953,7.953,0,0,1-7.952,7.952H13.254A7.953,7.953,0,0,1,5.3,188.683V93.254A7.953,7.953,0,0,1,13.254,85.3H90.127V80H13.254A13.27,13.27,0,0,0,0,93.254v95.429A13.27,13.27,0,0,0,13.254,201.937Zm0,0" transform="translate(0 -53.492)"/>
  <path id="Path_38" data-name="Path 38" d="M32,112h5.3v5.3H32Zm0,0" transform="translate(-21.397 -74.889)"/>
  <path id="Path_39" data-name="Path 39" d="M64,112h5.3v5.3H64Zm0,0" transform="translate(-42.794 -74.889)"/>
  <path id="Path_40" data-name="Path 40" d="M96,112h5.3v5.3H96Zm0,0" transform="translate(-64.19 -74.889)"/>
  <path id="Path_41" data-name="Path 41" d="M384,144h5.3v5.3H384Zm0,0" transform="translate(-256.762 -96.286)"/>
  <path id="Path_42" data-name="Path 42" d="M32,144h79.524v5.3H32Zm0,0" transform="translate(-21.397 -96.286)"/>
  <path id="Path_43" data-name="Path 43" d="M34.651,184A2.651,2.651,0,0,0,32,186.651v31.81a2.651,2.651,0,0,0,2.651,2.651H71.762a2.651,2.651,0,0,0,2.651-2.651v-31.81A2.651,2.651,0,0,0,71.762,184Zm34.46,31.81H37.3V189.3h31.81Zm0,0" transform="translate(-21.397 -123.032)"/>
  <path id="Path_44" data-name="Path 44" d="M184,184h18.556v5.3H184Zm0,0" transform="translate(-123.032 -123.032)"/>
  <path id="Path_45" data-name="Path 45" d="M256,184h5.3v5.3H256Zm0,0" transform="translate(-171.174 -123.032)"/>
  <path id="Path_46" data-name="Path 46" d="M184,224h10.6v5.3H184Zm0,0" transform="translate(-123.032 -149.778)"/>
  <path id="Path_47" data-name="Path 47" d="M232,224h13.254v5.3H232Zm0,0" transform="translate(-155.127 -149.778)"/>
  <path id="Path_48" data-name="Path 48" d="M184,264h29.159v5.3H184Zm0,0" transform="translate(-123.032 -176.524)"/>
  <path id="Path_49" data-name="Path 49" d="M184,304h29.159v5.3H184Zm0,0" transform="translate(-123.032 -203.27)"/>
  <path id="Path_50" data-name="Path 50" d="M184,384h34.46v5.3H184Zm0,0" transform="translate(-123.032 -256.762)"/>
  <path id="Path_51" data-name="Path 51" d="M184,344h15.9v5.3H184Zm0,0" transform="translate(-123.032 -230.016)"/>
  <path id="Path_52" data-name="Path 52" d="M248,344h7.952v5.3H248Zm0,0" transform="translate(-165.825 -230.016)"/>
  <path id="Path_53" data-name="Path 53" d="M384,184h5.3v5.3H384Zm0,0" transform="translate(-256.762 -123.032)"/>
  <path id="Path_54" data-name="Path 54" d="M384,224h5.3v5.3H384Zm0,0" transform="translate(-256.762 -149.778)"/>
  <path id="Path_55" data-name="Path 55" d="M384,264h5.3v5.3H384Zm0,0" transform="translate(-256.762 -176.524)"/>
  <path id="Path_56" data-name="Path 56" d="M384,304h5.3v5.3H384Zm0,0" transform="translate(-256.762 -203.27)"/>
  <path id="Path_57" data-name="Path 57" d="M384,344h5.3v5.3H384Zm0,0" transform="translate(-256.762 -230.016)"/>
  <path id="Path_58" data-name="Path 58" d="M48,239.334v5.3H164.635a21.231,21.231,0,0,0,21.206-21.206V128h-5.3v95.429a15.921,15.921,0,0,1-15.9,15.9Zm0,0" transform="translate(-32.095 -85.587)"/>
  <path id="Path_59" data-name="Path 59" d="M301.254,0A13.27,13.27,0,0,0,288,13.254V116.635a2.658,2.658,0,0,0,.349,1.325l10.6,18.556a2.652,2.652,0,0,0,4.6,0l10.6-18.556a2.66,2.66,0,0,0,.35-1.325V13.254A13.27,13.27,0,0,0,301.254,0Zm0,5.3a7.953,7.953,0,0,1,7.952,7.952V15.9H293.3V13.254A7.953,7.953,0,0,1,301.254,5.3ZM303.9,113.985V31.81h5.3v82.175Zm-10.6,0V31.81h5.3v82.175Zm0-87.477v-5.3h15.9v5.3Zm7.952,103.339-6.035-10.561H307.29Zm0,0" transform="translate(-192.571)"/>
</svg>
