<svg id="user" xmlns="http://www.w3.org/2000/svg" width="40" height="40" viewBox="0 0 40 40">
  <g id="Group_26" data-name="Group 26">
    <path id="Path_89" data-name="Path 89" d="M20,0A20,20,0,1,0,40,20,20,20,0,0,0,20,0Zm0,7.886a6.044,6.044,0,1,1-6.043,6.043A6.044,6.044,0,0,1,20,7.886Zm2.493,20.455h0V30.8H11.182c0-5.957,3.24-8.076,5.366-9.979a7.21,7.21,0,0,0,6.9,0,24.328,24.328,0,0,1,3.135,3.014h-.97v3.123H22.494Zm6.695,2.188v3.123H27V30.529H23.876V28.341H27V25.218h2.188v3.123h3.123v2.188Z" transform="translate(-0.001)"/>
  </g>
</svg>
